<svg width="146" height="28" viewBox="0 0 146 28" fill="none" xmlns="http://www.w3.org/2000/svg">
<path d="M34.4957 18.7679V17.5932C34.4957 15.6933 33.3351 14.0668 31.6863 13.3741H32.8186C33.7442 13.3741 34.4957 12.6227 34.4957 11.697V10.8869C34.4957 10.4089 34.1068 10.02 33.6288 10.02H30.945L29.9586 4.62616L17.8848 18.057C17.5466 18.4337 16.9612 18.456 16.5946 18.1056L8.44821 10.3197C8.0897 9.97743 8.07552 9.40827 8.41985 9.04774L10.974 6.37818C11.3163 6.01967 11.8854 6.00752 12.2439 6.34982L16.2928 10.2225C16.6594 10.5729 17.2428 10.5506 17.583 10.1739L26.4485 0.315969C25.8793 0.111401 25.2656 -1.90735e-06 24.6317 -1.90735e-06H9.86198C7.26736 -1.90735e-06 5.0434 1.85532 4.57552 4.40741L3.55064 10.02H0.866898C0.388889 10.02 0 10.4089 0 10.8869V11.697C0 12.6227 0.751447 13.3741 1.67708 13.3741H2.80932C1.16059 14.0668 0 15.6933 0 17.5932V26.3047C0 27.2404 0.759549 28 1.69531 28H4.86719C5.80295 28 6.5625 27.2404 6.5625 26.3047V24.5203H27.9352V26.3047C27.9352 27.2404 28.6947 28 29.6305 28H32.8024C33.7381 28 34.4977 27.2404 34.4977 26.3047V18.7679H34.4957ZM9.77691 20.7002H5.16696C4.24334 20.7002 3.49392 19.9508 3.49392 19.0272V18.5087C3.49392 17.5851 4.24334 16.8356 5.16696 16.8356H6.09664C6.92506 16.8356 7.71499 17.1881 8.26997 17.8038L10.1395 19.884C10.423 20.1979 10.1982 20.7002 9.77488 20.7002H9.77691ZM31.0038 19.0272C31.0038 19.9508 30.2543 20.7002 29.3307 20.7002H24.7208C24.2975 20.7002 24.0747 20.1999 24.3562 19.884L26.2257 17.8038C26.7807 17.1881 27.5706 16.8356 28.399 16.8356H29.3287C30.2523 16.8356 31.0017 17.5851 31.0017 18.5087V19.0272H31.0038Z" fill="#E9E6F2"/>
<path d="M56.1377 14.7473C55.3336 15.8248 53.8955 16.396 52.3521 16.396C49.2653 16.396 47.1932 14.409 47.1932 11.4073C47.1932 8.63847 49.2227 6.41654 52.1191 6.41654C53.6828 6.41654 55.0581 6.81758 55.9452 7.70676L54.8029 9.63095C54.0838 8.93217 53.302 8.70126 52.4351 8.70126C51.0821 8.70126 49.7919 9.73627 49.7919 11.4073C49.7919 13.0783 51.1024 14.1356 52.5404 14.1356C53.5775 14.1356 54.3796 13.6495 54.9933 12.973L56.1356 14.7493L56.1377 14.7473Z" fill="#E9E6F2"/>
<path d="M57.5919 1.3631H60.0225V7.51646C60.6362 6.92502 61.6509 6.47942 62.7508 6.47942C65.076 6.47942 66.6619 7.66432 66.6619 10.6438V16.1611H64.2314V10.9597C64.2314 9.54395 63.4496 8.76009 62.1168 8.76009C61.335 8.76009 60.5734 9.07809 60.0245 9.62699V16.1591H57.5939V1.3631H57.5919Z" fill="#E9E6F2"/>
<path d="M76.9717 15.2111C76.0197 16.0152 74.6667 16.396 73.336 16.396C70.2694 16.396 68.2197 14.409 68.2197 11.4073C68.2197 8.63847 70.1216 6.41654 73.2509 6.41654C75.7038 6.41654 77.7535 8.17059 77.7535 10.8361C77.7535 11.4275 77.711 11.7881 77.6057 12.1466H70.7353C70.9459 13.5847 72.0883 14.3665 73.5892 14.3665C74.7518 14.3665 75.724 13.9432 76.2749 13.4996L76.9737 15.2131L76.9717 15.2111ZM70.6502 10.5181H75.323C75.3432 9.35549 74.5411 8.44605 73.1456 8.44605C71.75 8.44605 70.9034 9.27042 70.6502 10.5181Z" fill="#E9E6F2"/>
<path d="M87.7978 14.7473C86.9937 15.8248 85.5556 16.396 84.0122 16.396C80.9254 16.396 78.8533 14.409 78.8533 11.4073C78.8533 8.63847 80.8828 6.41654 83.7792 6.41654C85.3429 6.41654 86.7182 6.81758 87.6053 7.70676L86.463 9.63095C85.7439 8.93217 84.9621 8.70126 84.0952 8.70126C82.7422 8.70126 81.452 9.73627 81.452 11.4073C81.452 13.0783 82.7625 14.1356 84.2005 14.1356C85.2376 14.1356 86.0397 13.6495 86.6534 12.973L87.7957 14.7493L87.7978 14.7473Z" fill="#E9E6F2"/>
<path d="M89.252 1.36303H91.6825V16.1631H89.252V1.36303ZM94.6215 11.0042L98.6177 16.1631H95.4884L91.7251 11.1946L95.1299 6.64949H98.1964L94.6235 11.0042H94.6215Z" fill="#E9E6F2"/>
<path d="M109.357 16.2056H107.56L103.183 6.64943H106.079L107.834 10.7307C108.087 11.3019 108.382 12.1465 108.553 12.8879C108.721 12.1688 108.996 11.3019 109.249 10.6882L110.898 6.64943H113.456L109.355 16.2056H109.357Z" fill="#E9E6F2"/>
<path d="M114.52 7.3259C115.344 6.83979 116.634 6.41647 117.882 6.41647C120.693 6.41647 121.688 7.85455 121.688 10.3702V16.163H119.573V15.0632C119.067 15.7822 118.05 16.2886 116.762 16.2886C115.028 16.2886 113.78 15.211 113.78 13.3699C113.78 11.2776 115.324 10.2831 117.248 10.2831C118.095 10.2831 118.939 10.5585 119.405 10.8968C119.468 9.31086 119.047 8.44396 117.629 8.44396C116.529 8.44396 115.832 8.78221 115.133 9.10021L114.52 7.32388V7.3259ZM119.403 13.3719V12.3997C118.98 12.0817 118.431 11.9338 117.732 11.9338C116.928 11.9338 116.209 12.3146 116.209 13.1187C116.209 13.8378 116.8 14.2388 117.562 14.2388C118.577 14.2388 119.105 13.7952 119.401 13.3719H119.403Z" fill="#E9E6F2"/>
<path d="M123.8 1.36325H126.231V12.5479C126.231 13.6254 126.484 14.0913 127.055 14.0913C127.436 14.0913 127.754 13.9231 128.05 13.7105L128.556 15.5719C128.007 16.0154 127.181 16.376 126.04 16.376C124.582 16.376 123.8 15.4888 123.8 13.5424V1.36325Z" fill="#E9E6F2"/>
<path d="M137.754 15.2111C136.802 16.0152 135.449 16.396 134.118 16.396C131.051 16.396 129.002 14.409 129.002 11.4073C129.002 8.63847 130.904 6.41654 134.033 6.41654C136.486 6.41654 138.535 8.17059 138.535 10.8361C138.535 11.4275 138.493 11.7881 138.388 12.1466H131.515C131.726 13.5847 132.868 14.3665 134.369 14.3665C135.532 14.3665 136.504 13.9432 137.055 13.4996L137.754 15.2131V15.2111ZM131.432 10.5181H136.105C136.125 9.35549 135.323 8.44605 133.928 8.44605C132.532 8.44605 131.685 9.27042 131.432 10.5181Z" fill="#E9E6F2"/>
<path d="M140.034 4.00599H142.465V6.64921H145.532V8.93191H142.465V12.3995C142.465 13.4365 142.803 14.113 143.607 14.113C144.264 14.113 144.727 13.8173 145.066 13.5641L145.805 15.4458C145.234 15.9117 144.219 16.3755 142.994 16.3755C140.836 16.3755 140.034 14.9799 140.034 12.5494V4.00599Z" fill="#E9E6F2"/>
<path d="M48.1289 26.4141V22.2295C48.3619 22.2295 48.9594 22.2173 49.2227 22.2173C50.4177 22.2173 50.7702 22.8634 50.7702 23.5136C50.7702 24.1638 50.2861 24.8281 49.2632 24.8281C49.0951 24.8281 48.8439 24.822 48.6353 24.8038V26.412H48.1269L48.1289 26.4141ZM48.6373 22.7075V24.3218C48.8399 24.34 49.0384 24.3521 49.247 24.3521C49.8627 24.3521 50.2334 24.0362 50.2334 23.5095C50.2334 23.0133 49.9336 22.6973 49.2713 22.6973C49.1032 22.6973 48.8358 22.7034 48.6373 22.7095V22.7075Z" fill="#E9E6F2"/>
<path d="M52.9718 22.2051H53.4073L55.2059 26.4141H54.661L54.1223 25.1461H52.2163L51.6836 26.4141H51.1691L52.9677 22.2051H52.9718ZM52.4229 24.6681H53.9298L53.1764 22.8817L52.4229 24.6681Z" fill="#E9E6F2"/>
<path d="M56.3016 26.4141V22.2295C56.5346 22.2295 57.3063 22.2173 57.4258 22.2173C58.5681 22.2173 58.9145 22.7844 58.9145 23.4609C58.9145 24.1374 58.4669 24.5243 58.0051 24.6438L59.3986 26.4141H58.7768L57.4926 24.741H56.8121V26.4141H56.3037H56.3016ZM56.81 22.7075V24.261H57.4258C57.9099 24.261 58.3757 23.9612 58.3757 23.467C58.3757 23.0376 58.1367 22.6953 57.3954 22.6953C57.2637 22.6953 57.0065 22.7014 56.81 22.7075Z" fill="#E9E6F2"/>
<path d="M60.5065 22.2295H61.0149V26.4141H60.5065V22.2295ZM61.7015 24.1962L63.6622 26.4141H63.01L61.1142 24.2326L62.9492 22.2295H63.565L61.6995 24.1962H61.7015Z" fill="#E9E6F2"/>
<path d="M64.8288 22.2295H65.3372V26.4141H64.8288V22.2295Z" fill="#E9E6F2"/>
<path d="M70.0707 26.4141L67.4578 23.1267V26.4141H66.9798V22.2295H67.387L69.9998 25.5289V22.2295H70.4778V26.4141H70.0707Z" fill="#E9E6F2"/>
<path d="M73.8827 24.2856H75.4909V25.8939C75.1203 26.2645 74.4458 26.4731 73.9252 26.4731C72.6229 26.4731 71.8026 25.6245 71.8026 24.3221C71.8026 23.121 72.6087 22.1711 73.8584 22.1711C74.4255 22.1711 74.8326 22.3088 75.1729 22.5782L74.9521 22.9853C74.7071 22.7645 74.3182 22.6511 73.9171 22.6511C72.9854 22.6511 72.3393 23.3154 72.3393 24.3241C72.3393 25.3328 72.9854 25.9972 73.9354 25.9972C74.3303 25.9972 74.7901 25.8412 75.0109 25.6265V24.7657H73.8807V24.2877L73.8827 24.2856Z" fill="#E9E6F2"/>
<path d="M78.5513 23.2642C78.5513 22.6607 79.0172 22.1705 79.8132 22.1705C80.2973 22.1705 80.7267 22.3447 80.9677 22.606L80.6923 22.9888C80.4715 22.768 80.2082 22.6485 79.8436 22.6485C79.3777 22.6485 79.0901 22.8936 79.0901 23.2642C79.0901 24.2993 81.1338 23.9104 81.1338 25.3383C81.1338 26.025 80.5302 26.4746 79.7707 26.4746C79.2562 26.4746 78.6587 26.2417 78.4501 25.8467L78.7438 25.5004C78.9888 25.8224 79.4243 25.9966 79.7788 25.9966C80.2143 25.9966 80.5971 25.7697 80.5971 25.3444C80.5971 24.3215 78.5534 24.6517 78.5534 23.2642H78.5513Z" fill="#E9E6F2"/>
<path d="M84.2449 22.1711C85.4582 22.1711 86.3798 23.0501 86.3798 24.3221C86.3798 25.5941 85.4602 26.4731 84.2449 26.4731C83.0296 26.4731 82.1101 25.5941 82.1101 24.3221C82.1101 23.0501 83.0013 22.1711 84.2449 22.1711ZM84.2449 25.9972C85.2009 25.9972 85.841 25.268 85.841 24.3241C85.841 23.3803 85.1422 22.6511 84.2449 22.6511C83.3476 22.6511 82.6488 23.3499 82.6488 24.3241C82.6488 25.2984 83.3476 25.9972 84.2449 25.9972Z" fill="#E9E6F2"/>
<path d="M87.6943 22.2295H88.2027V25.9361H90.2646V26.4141H87.6943V22.2295Z" fill="#E9E6F2"/>
<path d="M94.508 24.6682C94.508 25.9483 93.7424 26.4668 92.8877 26.4668C91.883 26.4668 91.1539 25.8511 91.1539 24.6257V22.2295H91.6622V24.5305C91.6622 25.4399 92.1038 25.9888 92.8877 25.9888C93.5743 25.9888 93.9996 25.5169 93.9996 24.5669V22.2295H94.508V24.6682Z" fill="#E9E6F2"/>
<path d="M95.5592 22.2295H98.9964V22.7075H97.532V26.4141H97.0236V22.7075H95.5592V22.2295Z" fill="#E9E6F2"/>
<path d="M100.133 22.2295H100.641V26.4141H100.133V22.2295Z" fill="#E9E6F2"/>
<path d="M104.147 22.1711C105.36 22.1711 106.282 23.0501 106.282 24.3221C106.282 25.5941 105.362 26.4731 104.147 26.4731C102.932 26.4731 102.012 25.5941 102.012 24.3221C102.012 23.0501 102.904 22.1711 104.147 22.1711ZM104.147 25.9972C105.103 25.9972 105.743 25.268 105.743 24.3241C105.743 23.3803 105.044 22.6511 104.147 22.6511C103.25 22.6511 102.551 23.3499 102.551 24.3241C102.551 25.2984 103.25 25.9972 104.147 25.9972Z" fill="#E9E6F2"/>
<path d="M110.689 26.4141L108.077 23.1267V26.4141H107.599V22.2295H108.006L110.618 25.5289V22.2295H111.096V26.4141H110.689Z" fill="#E9E6F2"/>
<path d="M112.47 23.2642C112.47 22.6607 112.936 22.1705 113.732 22.1705C114.216 22.1705 114.645 22.3447 114.886 22.606L114.611 22.9888C114.39 22.768 114.127 22.6485 113.762 22.6485C113.296 22.6485 113.009 22.8936 113.009 23.2642C113.009 24.2993 115.052 23.9104 115.052 25.3383C115.052 26.025 114.449 26.4746 113.689 26.4746C113.175 26.4746 112.577 26.2417 112.368 25.8467L112.662 25.5004C112.907 25.8224 113.343 25.9966 113.697 25.9966C114.133 25.9966 114.515 25.7697 114.515 25.3444C114.515 24.3215 112.472 24.6517 112.472 23.2642H112.47Z" fill="#E9E6F2"/>
</svg>
