<svg width="20" height="20" viewBox="0 0 20 20" fill="none" xmlns="http://www.w3.org/2000/svg">
<g clip-path="url(#clip0_327_2515)">
<path d="M17.7103 3.84186L11.3412 2.93435C11.096 2.87991 10.8528 3.03383 10.7981 3.27819C10.7434 3.52252 10.8978 3.76476 11.1431 3.81918C11.166 3.82425 11.1892 3.82759 11.2126 3.82908L16.4953 4.58502L2.08129 15.3499C1.88023 15.5001 1.83937 15.7842 1.99006 15.9845C2.14075 16.1848 2.4259 16.2254 2.62696 16.0752L17.041 5.31034L16.2845 10.5709C16.2298 10.8152 16.3842 11.0574 16.6295 11.1119C16.8747 11.1663 17.1179 11.0124 17.1726 10.768C17.1777 10.7452 17.181 10.7221 17.1825 10.6988L18.095 4.35314C18.1298 4.10634 17.9579 3.87789 17.7103 3.84186Z" fill="#C2C2C2"/>
</g>
<defs>
<clipPath id="clip0_327_2515">
<rect width="20" height="20" fill="white"/>
</clipPath>
</defs>
</svg>
