<svg width="11" height="6" viewBox="0 0 11 6" fill="none" xmlns="http://www.w3.org/2000/svg">
<path d="M5.50003 6.00003C5.43436 6.0001 5.36933 5.98719 5.30866 5.96205C5.248 5.93691 5.1929 5.90003 5.14653 5.85353L0.146531 0.853531C-0.0488437 0.658156 -0.0488437 0.341781 0.146531 0.146531C0.341906 -0.0487188 0.658281 -0.0488437 0.853531 0.146531L5.50003 4.79303L10.1465 0.146531C10.3419 -0.0488437 10.6583 -0.0488437 10.8535 0.146531C11.0488 0.341906 11.0489 0.658281 10.8535 0.853531L5.85353 5.85353C5.80716 5.90003 5.75206 5.93691 5.6914 5.96205C5.63073 5.98719 5.5657 6.0001 5.50003 6.00003Z" fill="#333333"/>
</svg>
