<svg width="35" height="11" viewBox="0 0 35 11" fill="none" xmlns="http://www.w3.org/2000/svg">
<path d="M33.3594 4.79C33.7515 4.79 34.0694 5.10788 34.0694 5.5C34.0694 5.89212 33.7515 6.21 33.3594 6.21L33.3594 4.79ZM1.13733 6.00205C0.860056 5.72478 0.860056 5.27523 1.13733 4.99796L5.65574 0.479544C5.93301 0.202272 6.38256 0.202272 6.65983 0.479544C6.9371 0.756816 6.9371 1.20636 6.65983 1.48364L2.64347 5.5L6.65983 9.51637C6.9371 9.79364 6.9371 10.2432 6.65983 10.5205C6.38256 10.7977 5.93301 10.7977 5.65574 10.5205L1.13733 6.00205ZM33.3594 6.21L1.63937 6.21L1.63937 4.79L33.3594 4.79L33.3594 6.21Z" fill="white"/>
</svg>
