<svg width="15" height="15" viewBox="0 0 15 15" fill="none" xmlns="http://www.w3.org/2000/svg">
<path d="M14.575 6.84602L1.24167 0.0960296C1.11496 0.0320645 0.971891 -0.00102797 0.826615 2.43351e-05C0.681338 0.00107664 0.538883 0.0362372 0.413334 0.10203C0.287469 0.168054 0.183057 0.262646 0.110526 0.376356C0.0379945 0.490066 -0.000116207 0.618913 2.66172e-07 0.750028V14.25C-0.000116207 14.3811 0.0379945 14.51 0.110526 14.6237C0.183057 14.7374 0.287469 14.832 0.413334 14.898C0.540968 14.9646 0.685816 14.9997 0.833334 15C0.973334 15 1.115 14.9685 1.24167 14.904L14.575 8.15401C14.8367 8.02051 15 7.77151 15 7.50002C15 7.22852 14.8367 6.97952 14.575 6.84602Z" fill="#3D348B"/>
</svg>
