<svg width="35" height="11" viewBox="0 0 35 11" fill="none" xmlns="http://www.w3.org/2000/svg">
<path d="M1.64063 4.79C1.2485 4.79 0.930625 5.10788 0.930625 5.5C0.930625 5.89212 1.2485 6.21 1.64062 6.21L1.64063 4.79ZM33.8627 6.00205C34.1399 5.72478 34.1399 5.27523 33.8627 4.99796L29.3443 0.479544C29.067 0.202272 28.6174 0.202272 28.3402 0.479544C28.0629 0.756816 28.0629 1.20636 28.3402 1.48364L32.3565 5.5L28.3402 9.51637C28.0629 9.79364 28.0629 10.2432 28.3402 10.5205C28.6174 10.7977 29.067 10.7977 29.3443 10.5205L33.8627 6.00205ZM1.64062 6.21L33.3606 6.21L33.3606 4.79L1.64063 4.79L1.64062 6.21Z" fill="white"/>
</svg>
